<svg width="360" height="650" viewBox="0 0 360 650" fill="none" preserveAspectRatio="xMidYMin slice" xmlns="http://www.w3.org/2000/svg" class="with-you__lines is-hidden--md-up">
	<g opacity="0.5" stroke="#656675">
		<path d="M181.886 -105.329C220.998 -62.658 247.043 -9.62656 256.918 47.4492C266.792
				104.525 260.081 163.239 237.582 216.599C215.084 269.959 177.747 315.716 130.019
				348.419C82.2906 381.122 26.1823 399.394 -31.6231 401.058" vector-effect="non-scaling-stroke"></path>
		<path opacity="0.5" d="M109.76 -121.032C151.447 -81.8026 181.093 -31.5026 195.236 23.9934C209.379 79.4894 207.435 137.891 189.632 192.376C171.829 246.862 138.9 295.182 94.6929 331.695C50.4855 368.207 -3.17602 391.404 -60.0245 398.575" vector-effect="non-scaling-stroke"></path>
		<path opacity="0.5" d="M457.501 382.194C393.093 358.178 338.796 312.859 303.594 253.734C268.392 194.609 254.396 125.223 263.921 57.0575C273.447 -11.1081 305.923 -73.9671 355.975 -121.118C406.027 -168.269 470.656 -196.886 539.166 -202.233" vector-effect="non-scaling-stroke"></path>
		<path opacity="0.5" d="M190.398 755.242C145.201 716.142 112.592 664.536 96.6946 606.951C80.7969 549.366 82.3243 488.389 101.083 431.73C119.843 375.071 154.991 325.275 202.084 288.639C249.177 252.003 306.1 230.172 365.654 225.907" vector-effect="non-scaling-stroke"></path>
	</g>
</svg>